<?xml version="1.0" standalone="no"?>
<!DOCTYPE svg PUBLIC "-//W3C//DTD SVG 20010904//EN"
 "http://www.w3.org/TR/2001/REC-SVG-20010904/DTD/svg10.dtd">
<svg version="1.0" xmlns="http://www.w3.org/2000/svg"
 width="2388.000000pt" height="2388.000000pt" viewBox="0 0 2388.000000 2388.000000"
 preserveAspectRatio="xMidYMid meet">
<metadata>
Created by potrace 1.11, written by Peter Selinger 2001-2013
</metadata>
<g transform="translate(0.000000,2388.000000) scale(0.100000,-0.100000)"
fill="#000000" stroke="none">
<path d="M5379 19878 c-4 -9 -3 -1828 1 -1829 3 -1 208 -2 455 -3 l450 -1 3
-6187 2 -6186 -402 0 c-222 0 -428 -1 -458 -1 l-55 -1 0 -909 c0 -500 3 -913
7 -917 10 -9 9087 -9 9258 0 69 4 141 9 160 11 19 2 64 7 100 10 36 4 74 9 85
11 11 2 40 7 65 10 135 15 396 72 585 126 124 35 356 113 410 138 11 5 49 21
85 36 111 45 336 153 420 201 19 11 62 36 95 55 796 456 1465 1204 1844 2061
138 314 272 762 315 1057 48 330 59 470 59 740 0 149 -11 418 -18 430 -1 3 -6
41 -10 85 -4 44 -8 82 -10 85 -1 3 -6 32 -9 65 -4 33 -9 67 -11 75 -2 8 -7 31
-10 50 -10 63 -36 184 -51 245 -9 33 -18 68 -20 79 -9 48 -104 355 -123 401
-5 11 -30 74 -56 140 -55 139 -172 386 -234 495 -24 41 -55 95 -69 120 -14 25
-33 56 -42 70 -9 14 -41 62 -69 107 -43 66 -126 184 -168 238 -5 6 -24 30 -43
55 -54 70 -62 79 -108 134 -254 298 -545 563 -862 785 -130 91 -138 96 -282
182 -55 32 -85 56 -81 63 4 6 48 54 99 106 165 170 288 321 437 534 110 157
92 128 244 386 27 45 132 254 173 345 74 161 218 559 234 646 3 13 5 25 7 27
1 1 2 5 3 10 1 4 12 50 25 102 26 107 25 104 47 220 9 47 18 94 20 105 3 11 7
40 10 65 3 25 7 56 9 70 40 252 51 785 21 1020 -2 14 -7 55 -10 92 -4 37 -9
77 -11 90 -2 13 -6 41 -10 63 -50 342 -165 745 -305 1074 -298 699 -775 1318
-1375 1785 -87 68 -291 213 -342 242 -17 11 -80 48 -140 84 -274 163 -611 313
-918 409 -121 37 -349 97 -425 111 -61 11 -93 17 -130 25 -41 8 -82 14 -135
20 -27 3 -57 8 -65 10 -8 2 -47 7 -87 10 -40 4 -85 9 -100 13 -27 5 -8482 15
-8484 10z m8331 -1842 c41 -3 86 -8 100 -11 14 -2 45 -7 70 -10 117 -16 304
-62 450 -111 83 -29 298 -118 345 -144 17 -9 57 -32 90 -50 118 -65 333 -212
402 -274 6 -6 47 -42 90 -81 63 -57 153 -149 259 -268 69 -77 307 -436 309
-466 1 -3 15 -34 33 -67 74 -146 170 -411 196 -546 2 -12 9 -43 15 -68 12 -54
18 -88 27 -155 3 -27 8 -52 9 -55 7 -11 19 -238 18 -340 -1 -373 -84 -750
-239 -1088 -18 -40 -33 -73 -33 -75 4 -12 -215 -363 -263 -422 -156 -191 -325
-367 -423 -440 -22 -16 -42 -32 -45 -35 -3 -3 -24 -20 -47 -38 l-41 -32 -7 22
c-4 13 -34 91 -67 173 -298 748 -789 1383 -1469 1898 -231 175 -600 387 -884
507 -55 23 -119 50 -142 61 -24 10 -43 16 -43 14 0 -2 -21 5 -46 15 -54 23
-322 108 -366 115 -17 3 -35 8 -39 10 -10 7 -322 72 -379 80 -25 3 -52 8 -60
10 -8 2 -44 7 -80 10 -36 3 -72 8 -80 10 -96 26 -863 26 -960 0 -8 -2 -42 -7
-75 -10 -128 -13 -322 -47 -464 -81 -58 -14 -113 -27 -121 -29 -39 -8 -265
-78 -350 -108 -299 -107 -598 -252 -855 -414 -89 -56 -250 -167 -277 -191 -17
-14 -18 50 -18 1335 0 742 2 1352 4 1354 7 7 5375 2 5456 -5z"/>
</g>
</svg>
